<svg width="75" height="40" viewBox="0 0 75 40" fill="none" xmlns="http://www.w3.org/2000/svg">
<path fill-rule="evenodd" clip-rule="evenodd" d="M68.232 22.3528C68.8826 22.3528 69.4085 21.8269 69.4085 21.1763C69.4085 20.5257 68.8826 19.9998 68.232 19.9998H65.8791C65.2285 19.9998 64.7026 20.5257 64.7026 21.1763C64.7026 21.8269 65.2285 22.3528 65.8791 22.3528H68.232V22.3528ZM35.2911 32.9411C33.3429 32.9411 31.7617 34.5211 31.7617 36.4705C31.7617 38.4199 33.3429 39.9999 35.2911 39.9999C37.2393 39.9999 38.8205 38.4199 38.8205 36.4705C38.8205 34.5211 37.2393 32.9411 35.2911 32.9411V32.9411ZM35.2915 37.6473C34.6409 37.6473 34.115 37.1214 34.115 36.4708C34.115 35.8202 34.6409 35.2943 35.2915 35.2943C35.942 35.2943 36.4679 35.8202 36.4679 36.4708C36.4679 37.1214 35.942 37.6473 35.2915 37.6473V37.6473ZM52.9384 32.9411H41.1737C40.5231 32.9411 39.9973 33.467 39.9973 34.1176C39.9973 34.7681 40.5231 35.294 41.1737 35.294H52.9384C53.589 35.294 54.1149 34.7681 54.1149 34.1176C54.1149 33.467 53.589 32.9411 52.9384 32.9411V32.9411ZM69.4084 15.2941H67.0554C65.7566 15.2941 64.7025 14.24 64.7025 12.9412L62.3496 4.70588C62.3496 2.10706 60.2425 0 57.6437 0H23.526C22.8754 0 22.3495 0.525883 22.3495 1.17647V34.1177C22.3495 34.7682 22.8754 35.2941 23.526 35.2941H29.4084C30.059 35.2941 30.5848 34.7682 30.5848 34.1177C30.5848 33.4671 30.059 32.9412 29.4084 32.9412H24.7025V2.35294H57.6437C58.9425 2.35294 59.9966 3.40706 59.9966 4.70588L62.3496 12.9412C62.3496 15.54 64.4566 17.6471 67.0554 17.6471H69.4084C70.7072 17.6471 71.7613 18.7012 71.7613 20V30.5882C71.7613 31.8871 70.7072 32.9412 69.4084 32.9412H64.7025C64.0519 32.9412 63.526 33.4671 63.526 34.1177C63.526 34.7682 64.0519 35.2941 64.7025 35.2941H69.4084C72.0072 35.2941 74.1143 33.1871 74.1143 30.5882V20C74.1143 17.4012 72.0072 15.2941 69.4084 15.2941V15.2941ZM57.6438 17.647C58.9427 17.647 59.9968 16.5929 59.9968 15.294L57.6438 7.05875C57.6438 5.75993 56.5897 4.70581 55.2909 4.70581H50.585C49.2862 4.70581 48.2321 5.75993 48.2321 7.05875V15.294C48.2321 16.5929 49.2862 17.647 50.585 17.647H57.6438V17.647ZM50.5851 7.059H55.291L57.6439 15.2943H50.5851V7.059V7.059ZM58.8209 32.9411C56.8727 32.9411 55.2915 34.5211 55.2915 36.4705C55.2915 38.4199 56.8727 39.9999 58.8209 39.9999C60.7692 39.9999 62.3504 38.4199 62.3504 36.4705C62.3504 34.5211 60.7692 32.9411 58.8209 32.9411V32.9411ZM58.8205 37.6473C58.17 37.6473 57.6441 37.1214 57.6441 36.4708C57.6441 35.8202 58.17 35.2943 58.8205 35.2943C59.4711 35.2943 59.997 35.8202 59.997 36.4708C59.997 37.1214 59.4711 37.6473 58.8205 37.6473V37.6473Z" fill="#333333"/>
<path fill-rule="evenodd" clip-rule="evenodd" d="M45.0335 28.6611C44.5924 29.0999 44.5924 29.8117 45.0335 30.2505C45.4747 30.6893 46.1888 30.6893 46.63 30.2505L51.4218 25.4823C51.8618 25.0434 51.8618 24.3317 51.4218 23.8929L46.63 19.1246C46.1888 18.6858 45.4747 18.6858 45.0335 19.1246C44.5924 19.5634 44.5924 20.2752 45.0335 20.714L47.8629 23.5293H38.8206C36.8724 23.5293 35.2912 21.9493 35.2912 19.9999V15.294C35.2912 14.6434 34.7653 14.1176 34.1147 14.1176C33.4641 14.1176 32.9382 14.6434 32.9382 15.294V19.9999C32.9382 23.2493 35.5712 25.8823 38.8206 25.8823H47.8265L45.0335 28.6611V28.6611Z" fill="#E3231C"/>
<path fill-rule="evenodd" clip-rule="evenodd" d="M1.19586 32.9411H20.0194C20.6688 32.9411 21.1959 33.4623 21.1959 34.1176C21.1959 34.7729 20.6688 35.294 20.0194 35.294H1.19586C0.546445 35.294 0.0193861 34.7729 0.0193861 34.1176C0.0193861 33.4623 0.546445 32.9411 1.19586 32.9411V32.9411Z" fill="#E3231C"/>
<path fill-rule="evenodd" clip-rule="evenodd" d="M18.8433 29.4118C18.8433 30.0671 18.3163 30.5883 17.6669 30.5883H3.5492C2.89979 30.5883 2.37273 30.0671 2.37273 29.4118C2.37273 28.7565 2.89979 28.2353 3.5492 28.2353H17.6669C18.3174 28.2353 18.8433 28.7565 18.8433 29.4118V29.4118Z" fill="#E3231C"/>
<path fill-rule="evenodd" clip-rule="evenodd" d="M15.3135 23.5293H20.0194C20.6688 23.5293 21.1959 24.0505 21.1959 24.7058C21.1959 25.3611 20.6688 25.8823 20.0194 25.8823H15.3135C14.6641 25.8823 14.137 25.3611 14.137 24.7058C14.137 24.0505 14.6641 23.5293 15.3135 23.5293V23.5293Z" fill="#E3231C"/>
</svg>
