<svg width="74" height="40" viewBox="0 0 74 40" fill="none" xmlns="http://www.w3.org/2000/svg">
<path fill-rule="evenodd" clip-rule="evenodd" d="M69.4332 2.94598H36.6997C36.1474 2.94598 35.6151 3.38563 35.5108 3.92797L29.3266 36.072C29.2223 36.6144 29.5854 37.054 30.1377 37.054H62.8712C63.4235 37.054 63.9558 36.6144 64.0602 36.072L70.2443 3.92797C70.3487 3.38563 69.9855 2.94598 69.4332 2.94598ZM37.2665 0C35.0573 0 32.9281 1.75861 32.5108 3.92797L26.3266 36.072C25.9093 38.2414 27.3618 40 29.5709 40H62.3045C64.5136 40 66.6428 38.2414 67.0602 36.072L73.2443 3.92797C73.6617 1.75861 72.2092 0 70 0H37.2665Z" fill="#333333"/>
<path d="M48.624 0.984959C48.7194 0.440981 49.2445 0 49.7968 0H57.9801C58.5324 0 58.9028 0.440981 58.8074 0.984959L57.0414 11.0513C56.946 11.5953 56.4209 12.0363 55.8686 12.0363H47.6853C47.133 12.0363 46.7626 11.5953 46.8581 11.0513L48.624 0.984959Z" fill="#E3231C"/>
<path fill-rule="evenodd" clip-rule="evenodd" d="M50.4512 1.96992L49.0308 10.0663H55.2142L56.6346 1.96992H50.4512ZM49.7968 0C49.2445 0 48.7194 0.440981 48.624 0.984959L46.8581 11.0513C46.7626 11.5953 47.133 12.0363 47.6853 12.0363H55.8686C56.4209 12.0363 56.946 11.5953 57.0414 11.0513L58.8074 0.984959C58.9028 0.440981 58.5324 0 57.9801 0H49.7968Z" fill="#333333"/>
<path d="M50.7976 0H56.9505L56.4188 2.94011H50.326L50.7976 0Z" fill="#E3231C"/>
<path d="M35.2571 26.2943C35.2715 25.7357 35.3914 25.2254 35.617 24.7635C35.8354 24.2443 36.3511 23.6946 37.1639 23.1146C37.8693 22.6097 38.3258 22.248 38.5335 22.0296C38.8522 21.6894 39.0115 21.317 39.0115 20.9124C39.0115 20.583 38.9202 20.3091 38.7376 20.0906C38.555 19.8722 38.2936 19.763 37.9534 19.763C37.4879 19.763 37.171 19.9367 37.0027 20.284C36.9061 20.4845 36.8488 20.8032 36.8309 21.2401H35.3431C35.3681 20.5776 35.4881 20.0423 35.7029 19.6341C36.1111 18.8571 36.8362 18.4686 37.8782 18.4686C38.7018 18.4686 39.3571 18.6977 39.8441 19.1561C40.331 19.6108 40.5745 20.2142 40.5745 20.9661C40.5745 21.5426 40.4026 22.0547 40.0589 22.5023C39.8333 22.7995 39.4627 23.1307 38.9471 23.4959L38.3348 23.931C37.9516 24.2031 37.6885 24.4 37.5452 24.5218C37.4056 24.6435 37.2874 24.785 37.1907 24.9461H40.5906V26.2943H35.2571ZM46.7889 24.6185H45.908V26.2943H44.4095V24.6185H41.3265V23.2811L44.1893 18.5545H45.908V23.4207H46.7889V24.6185ZM44.4095 23.4207V20.0584L42.4598 23.4207H44.4095ZM51.1019 20.2894C51.4635 20.2894 51.7912 20.352 52.0848 20.4774C52.382 20.6027 52.6255 20.7943 52.8152 21.0521C52.9764 21.2705 53.0748 21.4961 53.1107 21.7288C53.1465 21.958 53.1644 22.334 53.1644 22.8568V26.2943H51.6014V22.7332C51.6014 22.4181 51.5477 22.1639 51.4402 21.9705C51.3006 21.6984 51.0356 21.5623 50.6453 21.5623C50.2407 21.5623 49.9328 21.6984 49.7215 21.9705C49.5138 22.2391 49.41 22.624 49.41 23.1253V26.2943H47.8846V18.4041H49.41V21.2025C49.632 20.8623 49.888 20.626 50.178 20.4935C50.4717 20.3574 50.7796 20.2894 51.1019 20.2894ZM57.7781 20.3001C57.8068 20.3001 57.8301 20.3019 57.848 20.3055C57.8694 20.3055 57.9142 20.3073 57.9822 20.3109V21.8792C57.8856 21.8685 57.7996 21.8613 57.7244 21.8577C57.6492 21.8541 57.5884 21.8524 57.5418 21.8524C56.9259 21.8524 56.5123 22.0529 56.3011 22.4539C56.1829 22.6795 56.1238 23.0268 56.1238 23.4959V26.2943H54.5823V20.4398H56.0433V21.4603C56.2796 21.07 56.4855 20.8032 56.6609 20.66C56.9474 20.4201 57.3198 20.3001 57.7781 20.3001ZM60.077 24.4251C60.1092 24.6972 60.179 24.8906 60.2864 25.0052C60.4762 25.2093 60.8271 25.3113 61.3392 25.3113C61.64 25.3113 61.8781 25.2666 62.0535 25.1771C62.2326 25.0875 62.3221 24.9533 62.3221 24.7742C62.3221 24.6024 62.2505 24.4717 62.1072 24.3821C61.964 24.2926 61.4323 24.1387 60.512 23.9202C59.8496 23.7555 59.3823 23.5496 59.1102 23.3026C58.838 23.0591 58.702 22.7082 58.702 22.2498C58.702 21.7091 58.9132 21.2454 59.3358 20.8587C59.7619 20.4684 60.3598 20.2733 61.1297 20.2733C61.8602 20.2733 62.4546 20.4201 62.9129 20.7137C63.3748 21.0037 63.6398 21.5068 63.7078 22.223H62.1771C62.1556 22.026 62.1001 21.8703 62.0106 21.7557C61.8423 21.548 61.5558 21.4442 61.1512 21.4442C60.8182 21.4442 60.5801 21.4961 60.4368 21.5999C60.2972 21.7038 60.2274 21.8255 60.2274 21.9651C60.2274 22.1406 60.3026 22.2677 60.4529 22.3465C60.6033 22.4289 61.1351 22.5703 62.0482 22.7708C62.6569 22.914 63.1134 23.1307 63.4178 23.4207C63.7186 23.7143 63.869 24.0814 63.869 24.5218C63.869 25.1019 63.6523 25.5763 63.2191 25.9451C62.7894 26.3104 62.1234 26.493 61.221 26.493C60.3008 26.493 59.6204 26.2996 59.18 25.9129C58.7431 25.5226 58.5247 25.0267 58.5247 24.4251H60.077Z" fill="#E3231C"/>
<path fill-rule="evenodd" clip-rule="evenodd" d="M1.39867 33.647H23.7778C24.5498 33.647 25.1765 34.1682 25.1765 34.8235C25.1765 35.4788 24.5498 36 23.7778 36H1.39867C0.626592 36 -2.28882e-05 35.4788 -2.28882e-05 34.8235C-2.28882e-05 34.1682 0.626592 33.647 1.39867 33.647V33.647Z" fill="#E3231C"/>
<path fill-rule="evenodd" clip-rule="evenodd" d="M22.3795 30.1178C22.3795 30.773 21.7529 31.2942 20.9808 31.2942H4.19651C3.42443 31.2942 2.79781 30.773 2.79781 30.1178C2.79781 29.4625 3.42443 28.9413 4.19651 28.9413H20.9808C21.7543 28.9413 22.3795 29.4625 22.3795 30.1178V30.1178Z" fill="#E3231C"/>
<path fill-rule="evenodd" clip-rule="evenodd" d="M18.183 24.2353H23.7778C24.5498 24.2353 25.1765 24.7565 25.1765 25.4118C25.1765 26.0671 24.5498 26.5882 23.7778 26.5882H18.183C17.4109 26.5882 16.7843 26.0671 16.7843 25.4118C16.7843 24.7565 17.4109 24.2353 18.183 24.2353V24.2353Z" fill="#E3231C"/>
</svg>
