<svg width="74" height="40" viewBox="0 0 74 40" fill="none" xmlns="http://www.w3.org/2000/svg">
<path fill-rule="evenodd" clip-rule="evenodd" d="M55.3661 33.9136C63.9528 33.9136 70.9137 26.9527 70.9137 18.3659C70.9137 9.77919 63.9528 2.81827 55.3661 2.81827C46.7793 2.81827 39.8184 9.77919 39.8184 18.3659C39.8184 26.9527 46.7793 33.9136 55.3661 33.9136Z" fill="white"/>
<path fill-rule="evenodd" clip-rule="evenodd" d="M57.8209 20.0025H61.0941V22.4574C61.0941 22.9099 61.4599 23.2757 61.9124 23.2757C62.3649 23.2757 62.7307 22.9099 62.7307 22.4574V20.0025H63.549C64.0015 20.0025 64.3673 19.6368 64.3673 19.1842C64.3673 18.7317 64.0015 18.3659 63.549 18.3659H62.7307V17.5476C62.7307 17.0951 62.3649 16.7293 61.9124 16.7293C61.4599 16.7293 61.0941 17.0951 61.0941 17.5476V18.3659H59.0623L61.0278 13.7786H61.027C61.0704 13.6787 61.0941 13.5707 61.0941 13.4562C61.0941 13.0036 60.7283 12.6379 60.2758 12.6379C59.9387 12.6379 59.649 12.8424 59.5238 13.1337L59.5222 13.1362C59.5222 13.137 59.5222 13.1378 59.5213 13.1387L57.0689 18.8618C57.0263 18.9608 57.0026 19.0697 57.0026 19.1842C57.0026 19.6368 57.3684 20.0025 57.8209 20.0025V20.0025ZM54.5476 22.4574C54.5476 22.0049 54.1818 21.6391 53.7293 21.6391H50.5666L53.5403 18.0722C53.5403 18.0722 54.5476 17.0174 54.5476 15.911C54.5476 14.1034 53.082 12.6378 51.2744 12.6378C49.4668 12.6378 48.0012 14.1034 48.0012 15.911H49.6378C49.6378 15.0076 50.371 14.2744 51.2744 14.2744C52.1778 14.2744 52.8685 15.0076 52.911 15.911C52.9364 16.4609 52.2817 17.0231 52.2817 17.0231L48.1902 21.9329C48.1902 21.9329 48.0012 22.0638 48.0012 22.4574C48.0012 22.9099 48.367 23.2757 48.8195 23.2757H53.7293C54.1818 23.2757 54.5476 22.9099 54.5476 22.4574V22.4574Z" fill="#E3231C"/>
<path d="M47.1829 6.59149C47.9116 6.59149 48.5012 6.00185 48.5012 5.27319C48.5012 4.54453 47.9116 3.9549 47.1829 3.9549C46.4543 3.9549 45.8646 4.54453 45.8646 5.27319C45.8646 6.00185 46.4543 6.59149 47.1829 6.59149Z" fill="#333333" stroke="#333333"/>
<path d="M39.8183 17.0476C39.0896 17.0476 38.5 17.6373 38.5 18.3659C38.5 19.0946 39.0896 19.6842 39.8183 19.6842C40.547 19.6842 41.1366 19.0946 41.1366 18.3659C41.1366 17.6373 40.547 17.0476 39.8183 17.0476Z" fill="#333333" stroke="#333333"/>
<path d="M55.366 4.1366C56.0946 4.1366 56.6843 3.54696 56.6843 2.8183C56.6843 2.08964 56.0946 1.5 55.366 1.5C54.6373 1.5 54.0477 2.08964 54.0477 2.8183C54.0477 3.54696 54.6373 4.1366 55.366 4.1366Z" fill="#333333" stroke="#333333"/>
<path d="M42.2733 25.2307C41.5446 25.2307 40.955 25.8203 40.955 26.5489C40.955 27.2776 41.5446 27.8672 42.2733 27.8672C43.0019 27.8672 43.5916 27.2776 43.5916 26.5489C43.5916 25.8203 43.0019 25.2307 42.2733 25.2307Z" fill="#333333" stroke="#333333"/>
<path d="M47.1829 30.1404C46.4543 30.1404 45.8646 30.7301 45.8646 31.4587C45.8646 32.1874 46.4543 32.777 47.1829 32.777C47.9116 32.777 48.5012 32.1874 48.5012 31.4587C48.5012 30.7301 47.9116 30.1404 47.1829 30.1404Z" fill="#333333" stroke="#333333"/>
<path d="M42.2733 8.86469C41.5446 8.86469 40.955 9.45432 40.955 10.183C40.955 10.9116 41.5446 11.5013 42.2733 11.5013C43.0019 11.5013 43.5916 10.9116 43.5916 10.183C43.5916 9.45432 43.0019 8.86469 42.2733 8.86469Z" fill="#333333" stroke="#333333"/>
<path fill-rule="evenodd" clip-rule="evenodd" d="M71.7319 18.366C71.7319 12.5961 68.6609 7.63971 64.1488 4.72657C63.9998 4.56209 63.7887 4.4549 63.5489 4.4549C63.0964 4.4549 62.7306 4.82067 62.7306 5.27319C62.7306 5.6177 62.945 5.90983 63.247 6.03094C67.3025 8.65358 70.0953 13.1771 70.0953 18.366C70.0953 26.5007 63.5007 33.0953 55.366 33.0953C55.1827 33.0953 55.0035 33.083 54.8218 33.0749V33.0683L56.7718 31.138C57.0795 30.8327 57.0795 30.3377 56.7718 30.0324C56.4633 29.7272 55.9633 29.7272 55.6548 30.0324L52.3055 33.349C51.997 33.6542 51.997 34.1493 52.3055 34.4545L55.6548 37.7711C55.9633 38.0763 56.4633 38.0763 56.7718 37.7711C57.0795 37.4659 57.0795 36.9708 56.7718 36.6656L54.7972 34.7106C54.9863 34.7188 55.1745 34.7319 55.366 34.7319C64.4049 34.7319 71.7319 27.4049 71.7319 18.366V18.366Z" fill="#E3231C" stroke="#E3231C"/>
<path d="M5.60059 13.0488C5.48665 12.5573 5.20833 12.2139 4.76562 12.0186C4.51823 11.9111 4.24316 11.8574 3.94043 11.8574C3.361 11.8574 2.88411 12.0771 2.50977 12.5166C2.13867 12.9528 1.95312 13.6104 1.95312 14.4893C1.95312 15.3747 2.15495 16.0013 2.55859 16.3691C2.96224 16.737 3.42122 16.9209 3.93555 16.9209C4.4401 16.9209 4.85352 16.776 5.17578 16.4863C5.49805 16.1934 5.69661 15.8109 5.77148 15.3389H4.10645V14.1377H7.10449V18H6.1084L5.95703 17.1016C5.66732 17.4434 5.4069 17.6842 5.17578 17.8242C4.77865 18.0684 4.29036 18.1904 3.71094 18.1904C2.75716 18.1904 1.97591 17.86 1.36719 17.1992C0.732422 16.5352 0.415039 15.627 0.415039 14.4746C0.415039 13.3092 0.735677 12.375 1.37695 11.6719C2.01823 10.9688 2.86621 10.6172 3.9209 10.6172C4.83561 10.6172 5.56966 10.8499 6.12305 11.3154C6.67969 11.7777 6.9987 12.3555 7.08008 13.0488H5.60059ZM13.8672 12.0771H10.0586V13.6055H13.5547V14.8555H10.0586V16.7061H14.043V18H8.58887V10.8027H13.8672V12.0771ZM20.4443 10.8027V12.0771H18.291V18H16.7773V12.0771H14.6143V10.8027H20.4443ZM25.4883 18H23.9941V10.8027H25.4883V18ZM32.124 10.8027V12.0771H29.9707V18H28.457V12.0771H26.2939V10.8027H32.124ZM5.99121 21.8027V23.0771H3.83789V29H2.32422V23.0771H0.161133V21.8027H5.99121ZM9.88281 27.9258C10.4785 27.9258 10.9505 27.7061 11.2988 27.2666C11.6504 26.8271 11.8262 26.2021 11.8262 25.3916C11.8262 24.5843 11.6504 23.9609 11.2988 23.5215C10.9505 23.0788 10.4785 22.8574 9.88281 22.8574C9.28711 22.8574 8.81185 23.0771 8.45703 23.5166C8.10221 23.9561 7.9248 24.5811 7.9248 25.3916C7.9248 26.2021 8.10221 26.8271 8.45703 27.2666C8.81185 27.7061 9.28711 27.9258 9.88281 27.9258ZM13.3301 25.3916C13.3301 26.6839 12.9671 27.6735 12.2412 28.3604C11.6976 28.9202 10.9115 29.2002 9.88281 29.2002C8.85417 29.2002 8.06803 28.9202 7.52441 28.3604C6.79525 27.6735 6.43066 26.6839 6.43066 25.3916C6.43066 24.0732 6.79525 23.0837 7.52441 22.4229C8.06803 21.863 8.85417 21.583 9.88281 21.583C10.9115 21.583 11.6976 21.863 12.2412 22.4229C12.9671 23.0837 13.3301 24.0732 13.3301 25.3916ZM15.9424 23.0527V27.75H17.3291C18.0387 27.75 18.5335 27.4001 18.8135 26.7002C18.9665 26.3161 19.043 25.8587 19.043 25.3281C19.043 24.5957 18.9274 24.0342 18.6963 23.6436C18.4684 23.2497 18.0127 23.0527 17.3291 23.0527H15.9424ZM17.583 21.8027C18.029 21.8092 18.4001 21.8613 18.6963 21.959C19.2008 22.125 19.6094 22.4294 19.9219 22.8721C20.1725 23.2301 20.3434 23.6175 20.4346 24.0342C20.5257 24.4508 20.5713 24.848 20.5713 25.2256C20.5713 26.1826 20.3792 26.9932 19.9951 27.6572C19.4743 28.5524 18.6702 29 17.583 29H14.4824V21.8027H17.583ZM23.6768 26.2803H25.5029L24.6045 23.4482L23.6768 26.2803ZM23.7695 21.8027H25.4688L28.0176 29H26.3867L25.9229 27.5205H23.2715L22.7734 29H21.2012L23.7695 21.8027ZM32.124 21.8027H33.8281L31.4209 26.2949V29H29.917V26.2949L27.4268 21.8027H29.1992L30.6934 24.9375L32.124 21.8027Z" fill="#333333"/>
</svg>
