<svg width="74" height="40" viewBox="0 0 74 40" fill="none" xmlns="http://www.w3.org/2000/svg">
<g clip-path="url(#clip0)">
<rect width="74" height="40" fill="#E7E7E7"/>
<rect x="46.8741" y="3.53076" width="9.6878" height="7.75024" fill="#E3231C"/>
<path d="M69.0545 0C68.0859 0 37.2111 0 36.2433 0C33.7307 0 31.6188 1.88318 31.3307 4.38053L27.8598 34.4857C27.5217 37.42 29.8173 40 32.7723 40H65.5835C68.0961 40 70.208 38.1168 70.4961 35.6195L73.9669 5.5143C74.3051 2.58013 72.0096 0 69.0545 0V0ZM56.5891 3.97351L55.5897 11.085H48.1799L49.1793 3.97351H56.5891ZM70.0195 5.05934L66.5486 35.1644C66.492 35.6559 66.077 36.0265 65.5835 36.0265H32.7723C32.1892 36.0265 31.7407 35.5171 31.8072 34.9408L35.2781 4.83576C35.3348 4.34424 35.7497 3.97364 36.2433 3.97364H45.1666L43.927 12.7955C43.7591 13.9914 44.6889 15.0587 45.8944 15.0587H57.3167C58.3072 15.0587 59.1463 14.3291 59.2842 13.3483L60.6014 3.97351H69.0542C69.6375 3.97351 70.086 4.48291 70.0195 5.05934V5.05934Z" fill="#333333"/>
<path d="M49.7147 0.0163574H57.164L55.5628 11.0918H48.1759L49.7147 0.0163574Z" fill="#E3231C"/>
<path d="M36.3509 29.3042C36.3691 28.5933 36.5218 27.9438 36.8089 27.356C37.0869 26.6951 37.7431 25.9956 38.7776 25.2573C39.6754 24.6147 40.2565 24.1545 40.5208 23.8765C40.9264 23.4435 41.1292 22.9696 41.1292 22.4546C41.1292 22.0353 41.013 21.6867 40.7806 21.4087C40.5482 21.1307 40.2155 20.9917 39.7825 20.9917C39.1901 20.9917 38.7868 21.2127 38.5726 21.6548C38.4495 21.91 38.3766 22.3156 38.3538 22.8716H36.4603C36.4922 22.0285 36.6448 21.3472 36.9183 20.8276C37.4378 19.8387 38.3607 19.3442 39.6868 19.3442C40.735 19.3442 41.569 19.6359 42.1888 20.2192C42.8086 20.798 43.1185 21.5659 43.1185 22.5229C43.1185 23.2567 42.8997 23.9084 42.4622 24.478C42.1751 24.8563 41.7034 25.2778 41.0472 25.7427L40.2679 26.2964C39.7803 26.6427 39.4453 26.8934 39.263 27.0483C39.0853 27.2033 38.9349 27.3833 38.8118 27.5884H43.139V29.3042H36.3509ZM51.0276 27.1714H49.9066V29.3042H47.9993V27.1714H44.0755V25.4692L47.7191 19.4536H49.9066V25.647H51.0276V27.1714ZM47.9993 25.647V21.3677L45.5179 25.647H47.9993ZM54.3665 24.937C54.6295 24.937 54.8678 24.9826 55.0814 25.0737C55.2975 25.1649 55.4746 25.3042 55.6126 25.4917C55.7298 25.6506 55.8014 25.8146 55.8275 25.9839C55.8535 26.1506 55.8665 26.424 55.8665 26.8042V29.3042H54.7298V26.7144C54.7298 26.4852 54.6907 26.3003 54.6126 26.1597C54.511 25.9618 54.3183 25.8628 54.0345 25.8628C53.7402 25.8628 53.5163 25.9618 53.3626 26.1597C53.2116 26.355 53.136 26.6349 53.136 26.9995V29.3042H52.0267V23.5659H53.136V25.6011C53.2975 25.3537 53.4837 25.1818 53.6946 25.0854C53.9082 24.9865 54.1321 24.937 54.3665 24.937ZM59.222 24.9448C59.2428 24.9448 59.2597 24.9461 59.2728 24.9487C59.2884 24.9487 59.3209 24.95 59.3704 24.9526V26.0933C59.3001 26.0854 59.2376 26.0802 59.1829 26.0776C59.1282 26.075 59.084 26.0737 59.0501 26.0737C58.6022 26.0737 58.3014 26.2196 58.1478 26.5112C58.0618 26.6753 58.0189 26.9279 58.0189 27.269V29.3042H56.8978V25.0464H57.9603V25.7886C58.1321 25.5047 58.2819 25.3107 58.4095 25.2065C58.6178 25.0321 58.8887 24.9448 59.222 24.9448ZM60.8939 27.9448C60.9173 28.1427 60.9681 28.2834 61.0462 28.3667C61.1842 28.5151 61.4394 28.5894 61.8118 28.5894C62.0306 28.5894 62.2038 28.5568 62.3314 28.4917C62.4616 28.4266 62.5267 28.3289 62.5267 28.1987C62.5267 28.0737 62.4746 27.9787 62.3704 27.9136C62.2663 27.8485 61.8795 27.7365 61.2103 27.5776C60.7285 27.4578 60.3887 27.3081 60.1907 27.1284C59.9928 26.9513 59.8939 26.6961 59.8939 26.3628C59.8939 25.9696 60.0475 25.6323 60.3548 25.3511C60.6647 25.0672 61.0996 24.9253 61.6595 24.9253C62.1907 24.9253 62.623 25.0321 62.9564 25.2456C63.2923 25.4565 63.485 25.8224 63.5345 26.3433H62.4212C62.4056 26.2 62.3652 26.0868 62.3001 26.0034C62.1777 25.8524 61.9694 25.7769 61.6751 25.7769C61.4329 25.7769 61.2597 25.8146 61.1556 25.8901C61.054 25.9657 61.0032 26.0542 61.0032 26.1558C61.0032 26.2834 61.0579 26.3758 61.1673 26.4331C61.2767 26.493 61.6634 26.5959 62.3275 26.7417C62.7702 26.8459 63.1022 27.0034 63.3235 27.2144C63.5423 27.4279 63.6517 27.6948 63.6517 28.0151C63.6517 28.437 63.4941 28.7821 63.179 29.0503C62.8665 29.3159 62.3821 29.4487 61.7259 29.4487C61.0566 29.4487 60.5618 29.3081 60.2415 29.0269C59.9238 28.743 59.765 28.3823 59.765 27.9448H60.8939Z" fill="#E3231C"/>
<path fill-rule="evenodd" clip-rule="evenodd" d="M1.39867 33.647H23.7778C24.5498 33.647 25.1765 34.1682 25.1765 34.8235C25.1765 35.4788 24.5498 36 23.7778 36H1.39867C0.626592 36 -2.28882e-05 35.4788 -2.28882e-05 34.8235C-2.28882e-05 34.1682 0.626592 33.647 1.39867 33.647V33.647Z" fill="#E3231C"/>
<path fill-rule="evenodd" clip-rule="evenodd" d="M22.3795 30.1178C22.3795 30.773 21.7529 31.2942 20.9808 31.2942H4.19651C3.42443 31.2942 2.79781 30.773 2.79781 30.1178C2.79781 29.4625 3.42443 28.9413 4.19651 28.9413H20.9808C21.7543 28.9413 22.3795 29.4625 22.3795 30.1178V30.1178Z" fill="#E3231C"/>
<path fill-rule="evenodd" clip-rule="evenodd" d="M18.183 24.2353H23.7778C24.5498 24.2353 25.1765 24.7565 25.1765 25.4118C25.1765 26.0671 24.5498 26.5882 23.7778 26.5882H18.183C17.4109 26.5882 16.7843 26.0671 16.7843 25.4118C16.7843 24.7565 17.4109 24.2353 18.183 24.2353V24.2353Z" fill="#E3231C"/>
</g>
<defs>
<clipPath id="clip0">
<rect width="74" height="40" fill="white"/>
</clipPath>
</defs>
</svg>
