<svg width="38" height="42" viewBox="0 0 38 42" fill="none" xmlns="http://www.w3.org/2000/svg">
<path fill-rule="evenodd" clip-rule="evenodd" d="M19.1844 36.4596C28.7252 36.4596 36.4596 28.7252 36.4596 19.1844C36.4596 9.64357 28.7252 1.90921 19.1844 1.90921C9.6436 1.90921 1.90924 9.64357 1.90924 19.1844C1.90924 28.7252 9.6436 36.4596 19.1844 36.4596Z" fill="white"/>
<path fill-rule="evenodd" clip-rule="evenodd" d="M21.9121 21.0028H25.549V23.7305C25.549 24.2333 25.9554 24.6397 26.4582 24.6397C26.961 24.6397 27.3674 24.2333 27.3674 23.7305V21.0028H28.2766C28.7794 21.0028 29.1859 20.5964 29.1859 20.0936C29.1859 19.5908 28.7794 19.1844 28.2766 19.1844H27.3674V18.2752C27.3674 17.7724 26.961 17.366 26.4582 17.366C25.9554 17.366 25.549 17.7724 25.549 18.2752V19.1844H23.2914L25.4753 14.0873H25.4744C25.5226 13.9764 25.549 13.8564 25.549 13.7291C25.549 13.2263 25.1426 12.8199 24.6398 12.8199C24.2652 12.8199 23.9433 13.0472 23.8042 13.3708L23.8024 13.3736C23.8024 13.3745 23.8024 13.3754 23.8015 13.3763L21.0765 19.7354C21.0293 19.8454 21.0029 19.9663 21.0029 20.0936C21.0029 20.5964 21.4093 21.0028 21.9121 21.0028V21.0028ZM18.2752 23.7305C18.2752 23.2277 17.8688 22.8213 17.366 22.8213H13.8519L17.156 18.858C17.156 18.858 18.2752 17.686 18.2752 16.4567C18.2752 14.4483 16.6468 12.8199 14.6383 12.8199C12.6299 12.8199 11.0015 14.4483 11.0015 16.4567H12.8199C12.8199 15.453 13.6346 14.6383 14.6383 14.6383C15.6421 14.6383 16.4095 15.453 16.4568 16.4567C16.485 17.0677 15.7576 17.6924 15.7576 17.6924L11.2115 23.1477C11.2115 23.1477 11.0015 23.2932 11.0015 23.7305C11.0015 24.2333 11.4079 24.6397 11.9107 24.6397H17.366C17.8688 24.6397 18.2752 24.2333 18.2752 23.7305V23.7305Z" fill="#E3231C"/>
<path d="M10.0922 6.0461C10.8711 6.0461 11.5014 5.41582 11.5014 4.63688C11.5014 3.85794 10.8711 3.22766 10.0922 3.22766C9.31326 3.22766 8.68298 3.85794 8.68298 4.63688C8.68298 5.41582 9.31326 6.0461 10.0922 6.0461Z" fill="#333333" stroke="#333333"/>
<path d="M1.90922 17.7752C1.13028 17.7752 0.5 18.4055 0.5 19.1844C0.5 19.9633 1.13028 20.5936 1.90922 20.5936C2.68816 20.5936 3.31844 19.9633 3.31844 19.1844C3.31844 18.4055 2.68816 17.7752 1.90922 17.7752Z" fill="#333333" stroke="#333333"/>
<path d="M19.1844 3.31844C19.9634 3.31844 20.5936 2.68816 20.5936 1.90922C20.5936 1.13028 19.9634 0.5 19.1844 0.5C18.4055 0.5 17.7752 1.13028 17.7752 1.90922C17.7752 2.68816 18.4055 3.31844 19.1844 3.31844Z" fill="#333333" stroke="#333333"/>
<path d="M4.63688 26.8674C3.85794 26.8674 3.22766 27.4976 3.22766 28.2766C3.22766 29.0555 3.85794 29.6858 4.63688 29.6858C5.41582 29.6858 6.0461 29.0555 6.0461 28.2766C6.0461 27.4976 5.41582 26.8674 4.63688 26.8674Z" fill="#333333" stroke="#333333"/>
<path d="M10.0922 32.3227C9.31326 32.3227 8.68298 32.953 8.68298 33.7319C8.68298 34.5109 9.31326 35.1411 10.0922 35.1411C10.8711 35.1411 11.5014 34.5109 11.5014 33.7319C11.5014 32.953 10.8711 32.3227 10.0922 32.3227Z" fill="#333333" stroke="#333333"/>
<path d="M4.63688 8.68298C3.85794 8.68298 3.22766 9.31326 3.22766 10.0922C3.22766 10.8711 3.85794 11.5014 4.63688 11.5014C5.41582 11.5014 6.0461 10.8711 6.0461 10.0922C6.0461 9.31326 5.41582 8.68298 4.63688 8.68298Z" fill="#333333" stroke="#333333"/>
<path fill-rule="evenodd" clip-rule="evenodd" d="M37.3688 19.1844C37.3688 12.7735 33.9565 7.26635 28.943 4.02952C28.7775 3.84677 28.543 3.72766 28.2766 3.72766C27.7738 3.72766 27.3673 4.13408 27.3673 4.63688C27.3673 5.01966 27.6056 5.34425 27.9411 5.47882C32.4472 8.39287 35.5503 13.419 35.5503 19.1844C35.5503 28.223 28.2229 35.5504 19.1844 35.5504C18.9807 35.5504 18.7816 35.5367 18.5797 35.5276V35.5204L20.7464 33.3755C21.0883 33.0364 21.0883 32.4863 20.7464 32.1472C20.4036 31.808 19.8481 31.808 19.5053 32.1472L15.7839 35.8322C15.4411 36.1714 15.4411 36.7214 15.7839 37.0606L19.5053 40.7456C19.8481 41.0848 20.4036 41.0848 20.7464 40.7456C21.0883 40.4065 21.0883 39.8564 20.7464 39.5173L18.5525 37.3452C18.7625 37.3543 18.9716 37.3688 19.1844 37.3688C29.2276 37.3688 37.3688 29.2276 37.3688 19.1844V19.1844Z" fill="#E3231C" stroke="#E3231C"/>
</svg>
